<?xml version="1.0" standalone="no"?>
<!DOCTYPE svg PUBLIC "-//W3C//DTD SVG 20010904//EN"
 "http://www.w3.org/TR/2001/REC-SVG-20010904/DTD/svg10.dtd">
<svg version="1.0" xmlns="http://www.w3.org/2000/svg"
 width="512.000000pt" height="512.000000pt" viewBox="0 0 512.000000 512.000000"
 preserveAspectRatio="xMidYMid meet">

<g transform="translate(0.000000,512.000000) scale(0.100000,-0.100000)"
fill="#000000" stroke="none">
<path d="M2350 5114 c-304 -27 -539 -72 -781 -150 -433 -139 -785 -346 -1037
-608 -64 -67 -82 -92 -82 -115 0 -44 30 -75 74 -75 32 0 43 8 96 65 137 153
359 313 592 427 555 272 1187 368 1818 276 586 -85 1150 -350 1467 -688 236
-252 373 -553 373 -817 0 -40 -5 -55 -25 -74 l-24 -25 -2254 0 -2254 0 -28 26
c-27 25 -28 27 -21 111 10 136 34 229 91 363 48 114 52 128 41 155 -14 34 -51
51 -90 41 -20 -5 -35 -25 -70 -94 -99 -197 -151 -471 -114 -596 23 -78 103
-139 208 -160 l25 -5 0 -148 c0 -81 4 -162 8 -178 7 -29 5 -32 -27 -48 -103
-49 -176 -164 -176 -278 0 -112 43 -197 132 -260 26 -19 47 -37 48 -41 0 -4
-13 -34 -30 -66 -45 -88 -38 -170 19 -229 19 -20 21 -34 21 -126 0 -91 3 -110
25 -150 l24 -47 -24 -52 c-22 -47 -25 -66 -25 -178 0 -69 4 -140 9 -158 9 -30
8 -34 -17 -43 -88 -32 -139 -78 -178 -163 -22 -46 -24 -64 -24 -202 0 -119 4
-168 20 -230 56 -220 199 -399 395 -494 168 -82 -16 -75 1975 -78 1925 -3
1852 -4 1990 51 99 40 169 87 251 167 87 86 145 179 185 295 25 72 28 96 32
250 2 105 0 186 -7 211 -21 78 -100 162 -178 190 -24 8 -36 18 -33 26 2 7 6
81 8 163 3 142 2 152 -21 198 l-24 47 23 47 c20 39 24 61 24 144 0 94 1 98 35
149 46 69 48 128 5 218 -17 35 -30 65 -30 66 0 2 22 17 48 34 88 57 134 147
134 259 0 55 -5 84 -24 125 -29 62 -93 128 -149 153 -33 15 -38 21 -32 39 5
12 8 92 8 179 l0 158 25 5 c70 14 100 27 139 61 61 52 81 100 81 199 0 223
-78 454 -237 694 -93 141 -308 360 -451 460 -375 263 -845 438 -1363 506 -109
14 -524 26 -619 18z m2397 -2460 c99 -74 99 -204 0 -278 -28 -21 -31 -21
-1182 -26 -1146 -5 -1154 -5 -1181 -26 -15 -11 -37 -33 -48 -48 -20 -26 -21
-43 -26 -394 -5 -347 -6 -369 -26 -402 -38 -65 -115 -100 -189 -86 -37 7 -97
53 -118 90 -9 15 -13 128 -17 392 l-5 371 -27 35 c-45 59 -91 70 -265 66 -146
-3 -150 -4 -186 -31 -56 -42 -67 -72 -67 -179 -1 -97 -15 -154 -47 -190 -24
-28 -91 -58 -128 -58 -51 0 -111 35 -141 80 -26 38 -29 53 -34 159 -3 64 -11
126 -18 138 -7 12 -29 35 -49 50 l-36 28 -273 5 c-255 5 -274 6 -300 26 -53
39 -69 71 -69 137 0 75 24 114 87 146 l43 21 2137 -2 2137 -3 28 -21z m-3835
-571 c3 -93 8 -115 31 -160 32 -62 30 -63 -82 -63 -100 0 -149 15 -254 79 -47
28 -101 57 -119 63 -40 13 -58 26 -58 42 0 6 16 42 36 79 l35 67 204 0 203 0
4 -107z m898 -39 l0 -146 -25 16 c-66 43 -128 76 -174 93 l-51 18 0 82 0 83
125 0 125 0 0 -146z m2857 81 c18 -33 32 -69 31 -79 -2 -13 -34 -35 -98 -69
-52 -27 -122 -64 -155 -81 -52 -27 -71 -31 -153 -34 -66 -3 -107 1 -142 12
-63 21 -99 20 -122 -1 -16 -15 -22 -15 -40 -4 -12 7 -52 29 -90 47 -45 23 -68
41 -68 52 0 56 -77 79 -205 62 -83 -11 -147 -38 -295 -122 l-75 -43 -120 0
-120 0 -75 43 c-192 110 -297 141 -426 126 l-54 -7 0 82 0 81 1087 -2 1086 -3
34 -60z m108 -1115 c60 -37 68 -67 63 -235 -6 -174 -24 -244 -88 -344 -87
-134 -231 -234 -385 -266 -105 -22 -3495 -22 -3600 0 -176 37 -339 165 -414
326 -50 105 -64 185 -59 336 3 127 12 152 68 187 22 14 244 15 2204 16 2153 0
2179 0 2211 -20z"/>
<path d="M2019 4661 c-21 -22 -29 -39 -29 -66 0 -45 45 -95 85 -95 74 0 121
69 90 133 -29 62 -98 75 -146 28z"/>
<path d="M2991 4664 c-26 -21 -31 -33 -31 -69 0 -36 5 -48 31 -69 17 -15 43
-26 59 -26 16 0 42 11 59 26 26 21 31 33 31 69 0 36 -5 48 -31 69 -17 15 -43
26 -59 26 -16 0 -42 -11 -59 -26z"/>
<path d="M1310 4262 c-77 -77 10 -199 107 -148 83 42 59 160 -34 173 -37 5
-46 2 -73 -25z"/>
<path d="M2521 4276 c-13 -7 -30 -24 -37 -37 -54 -97 87 -189 156 -102 63 80
-30 188 -119 139z"/>
<path d="M3708 4275 c-33 -18 -52 -72 -39 -107 13 -35 58 -68 93 -68 44 0 88
48 88 95 0 27 -8 44 -29 66 -33 32 -70 37 -113 14z"/>
</g>
</svg>
